<svg xmlns="http://www.w3.org/2000/svg" xmlns:xlink="http://www.w3.org/1999/xlink" width="13571.31" height="6442.221" viewBox="0 0 13571.31 6442.221">
  <defs>
    <clipPath id="clip-Al_Hella_Electromechanical_White">
      <rect width="13571.31" height="6442.22"/>
    </clipPath>
  </defs>
  <g id="Al_Hella_Electromechanical_White" data-name="Al Hella Electromechanical_White" clip-path="url(#clip-Al_Hella_Electromechanical_White)">
    <g id="al_hella_logo_black" transform="translate(-577.747 -1106.779)">
      <path id="Path_13" data-name="Path 13" d="M322.436,811.931H-146.975V29.213h451.4V172.766H29.326V346.885H285.319V489.892H29.326V668.924h293.11Zm300.1,0H450.059V-15.545H622.541ZM1288.9,581.591H924.284q8.732,121.72,153.378,121.719,92.245,0,162.111-43.666V784.093q-77.508,41.483-201.411,41.483-135.365,0-210.144-75.051T753.44,541.2q0-139.186,80.783-220.514T1032.9,239.357q122.266,0,189.13,72.6T1288.9,509ZM1128.97,475.7q0-120.082-97.157-120.082-41.483,0-71.776,34.387t-36.844,85.7Zm705.109,316.034q-58.4,33.841-168.661,33.841-128.815,0-208.506-78.053t-79.69-201.411q0-142.461,85.422-224.608t228.429-82.147q98.795,0,143.007,26.2V411.838q-54.038-40.391-120.628-40.391-74.233,0-117.626,43.393T1552.432,534.65q0,74.232,41.482,116.534t114.078,42.3q64.408,0,126.087-40.391Zm469.858,13.646q-38.208,20.2-115.17,20.2-182.306,0-182.306-189.4V380.18h-90.609V253h90.609V132.374L2178.4,83.25V253h125.541V380.18H2178.4V606.153q0,87.333,69.32,87.333,27.292,0,56.221-15.829Zm480.774-396.817q-31.113-16.921-72.6-16.921-56.22,0-87.878,41.21T2592.579,545.02v266.91H2420.1V253h172.48V356.71h2.183q40.938-113.532,147.374-113.532,27.292,0,42.575,6.55Zm365.6,417.012q-139.732,0-219.7-78.326t-79.964-212.6q0-138.64,82.966-216.967t224.335-78.326q139.186,0,218.331,78.326t79.146,207.142q0,139.186-81.6,219.969T3150.315,825.576Zm4.366-454.129q-61.132,0-94.974,42.029t-33.841,118.99q0,161.019,129.907,161.019,123.9,0,123.9-165.386Q3279.677,371.447,3154.682,371.447ZM4473.848,811.931H4301.912V493.167q0-121.72-89.515-121.72-42.576,0-69.319,36.57t-26.748,91.153v312.76H3943.848V489.892q0-118.445-87.877-118.445-44.213,0-70.685,34.933t-26.472,94.974V811.931H3586.331V253h172.483v87.332H3761q26.745-44.758,75.051-72.868t105.618-28.11q118.445,0,162.111,104.253,63.862-104.253,187.766-104.253,182.307,0,182.306,224.881Zm657.624-230.339H4766.857q8.733,121.72,153.377,121.719,92.246,0,162.111-43.666V784.093q-77.508,41.483-201.41,41.483-135.366,0-210.144-75.051T4596.014,541.2q0-139.186,80.783-220.514t198.681-81.328q122.265,0,189.131,72.6T5131.472,509ZM4971.543,475.7q0-120.082-97.158-120.082-41.482,0-71.776,34.387t-36.844,85.7Zm705.108,316.034q-58.4,33.841-168.66,33.841-128.813,0-208.505-78.053T5219.8,546.112q0-142.461,85.421-224.608t228.431-82.147q98.793,0,143,26.2V411.838q-54.035-40.391-120.626-40.391-74.231,0-117.625,43.393T5395.006,534.65q0,74.232,41.483,116.534t114.078,42.3q64.408,0,126.084-40.391Zm668.54,20.2H6173.256V494.258q0-122.811-89.517-122.811-45.85,0-74.232,34.387t-28.383,87.333V811.931H5808.643V-15.545h172.481V335.968h2.184q63.316-96.611,171.936-96.612,189.951,0,189.948,229.248Zm620.507,0H6802.5V731.694h-2.184q-56.218,93.882-166.475,93.882-81.33,0-128-46.122t-46.669-123.084q0-162.657,192.68-187.765l151.74-20.2q0-91.7-99.341-91.7-99.887,0-189.948,59.5V286.3q36.024-18.558,98.521-32.75t113.8-14.192q239.075,0,239.074,238.527Zm-162.11-227.065V547.2l-101.523,13.1q-84.059,10.917-84.06,75.87,0,29.475,20.47,48.306t55.4,18.831q48.579,0,79.146-33.568T6803.588,584.866Zm857.394,227.065H7489.045V501.354q0-129.907-92.79-129.907-44.758,0-73.688,34.387t-28.929,87.333V811.931H7121.158V253h172.481v88.424h2.185q61.68-102.07,179.578-102.07,185.582,0,185.581,230.339Zm242.792-647.352q-43.667,0-71.5-25.927t-27.835-63.589q0-38.754,27.835-63.316t71.5-24.562q44.214,0,71.775,24.562t27.566,63.316q0,39.3-27.566,64.408T7903.774,164.578Zm85.149,647.352h-172.48V253h172.48Zm587.756-20.2q-58.4,33.841-168.661,33.841-128.817,0-208.507-78.053t-79.688-201.411q0-142.461,85.419-224.608t228.431-82.147q98.793,0,143.007,26.2V411.838q-54.038-40.391-120.628-40.391-74.234,0-117.626,43.393T8295.032,534.65q0,74.232,41.483,116.534t114.076,42.3q64.409,0,126.088-40.391Zm597.036,20.2h-163.2V731.694h-2.185q-56.219,93.882-166.477,93.882-81.328,0-127.994-46.122t-46.672-123.084q0-162.657,192.677-187.765l151.743-20.2q0-91.7-99.342-91.7-99.888,0-189.946,59.5V286.3q36.025-18.558,98.521-32.75t113.806-14.192q239.071,0,239.072,238.527ZM9011.6,584.866V547.2l-101.526,13.1q-84.056,10.917-84.057,75.87,0,29.475,20.469,48.306t55.4,18.831q48.582,0,79.146-33.568T9011.6,584.866Zm490.052,227.065H9329.173V-15.545h172.483Z" transform="translate(3648.089 5720.424)" fill="#9c9c9c"/>
      <g id="Group_85" data-name="Group 85" transform="translate(-5807.888 5523.556)">
        <path id="Path_93" data-name="Path 93" d="M878.7,1558.319H434.55L305.846,1155.8H-337.673l-127.442,402.515H-906.745L-646.359,843l1272.226,4.4Zm629.407,0H1109.381V-354.572H1508.11Zm2741.43,0H3840.717V821.427h-749.51v736.892H2683.645l2.745-1087.673H3840.717V-251.1h408.823Zm1579.543-532.48H4986.2q20.19,281.381,354.567,281.382,213.245,0,374.754-100.944v287.691q-179.174,95.9-465.6,95.9-312.927,0-485.793-173.5t-172.866-483.9q0-321.759,186.747-509.768t459.3-188.008q282.643,0,437.215,167.82t154.57,455.51Zm-369.707-244.79q0-277.6-224.6-277.6-95.9,0-165.927,79.494t-85.172,198.1Zm1049.586,777.27H6110.233V-354.572h398.729Zm778.3,0H6888.533V-354.572h398.728Zm1454.626,0h-377.28V1372.834h-5.048q-129.964,217.03-384.848,217.03-188.006,0-295.892-106.622t-107.884-284.536q0-376.017,445.417-434.06l350.778-46.687q0-211.983-229.646-211.983-230.911,0-439.108,137.536V343.2q83.279-42.9,227.757-75.708t263.084-32.807q552.667,0,552.67,551.407Zm-374.757-524.91V946.345l-234.693,30.283q-194.32,25.236-194.318,175.391,0,68.137,47.318,111.669t128.073,43.532q112.3,0,182.96-77.6T8367.13,1033.409Z" transform="translate(10215.746 -1683.984)" fill="#fff"/>
        <path id="Path_94" data-name="Path 94" d="M2683.645,855.675V-251.1h407.562v1106.2Z" transform="translate(10218.793 -1787.452)" fill="#fff"/>
        <path id="Path_102" data-name="Path 102" d="M4311.9-8487.058l-24.83,171.15,208.324,36.548,209.942-36.548v-169.549l237.53-770.864,96.42,360.683,242.9,776.648,374.331-160.294-220.84-616.354-242.835-682.083H4705.385Z" transform="translate(5257.454 7646.165)" fill="#fff"/>
      </g>
      <g id="primary_color_logo_for_dark" transform="translate(1572.022 2083.35)">
        <g id="Group_58" data-name="Group 58" transform="translate(427.614)">
          <path id="Icon_material-star" data-name="Icon material-star" d="M287.079,436.79,462.641,542.751,416.052,343.043l155.107-134.37L366.906,191.345,287.079,3,207.253,191.345,3,208.674l155.107,134.37L111.518,542.751Z" transform="translate(-3 780.335)" fill="#fff"/>
          <path id="Icon_material-star-2" data-name="Icon material-star" d="M155.7,236.173l94.369,56.957L225.026,185.782,308.4,113.555,198.609,104.24,155.7,3,112.792,104.24,3,113.555l83.374,72.227L61.332,293.131Z" transform="translate(130.038 338.086)" fill="#fff"/>
          <path id="Icon_material-star-3" data-name="Icon material-star" d="M102.456,154.87l61.464,37.1-16.311-69.918,54.3-47.043L130.4,68.939,102.456,3,74.509,68.939,3,75.006l54.3,47.043L40.992,191.967Z" transform="translate(182.598 -3)" fill="#0d6efd"/>
        </g>
        <g id="Group_57" data-name="Group 57" transform="translate(0 3555.963)">
          <path id="Path_45" data-name="Path 45" d="M153.5,0l-.709,851.591L0,867.643.357,16.089Z" transform="matrix(0.995, 0.105, -0.105, 0.995, 90.693, 27.196)" fill="#fff"/>
          <path id="Path_55" data-name="Path 55" d="M153.754,55.631l-.26,872.951L93.69,939.1.036,883.468l.022-9.875L0,0,136.425,41.6Z" transform="translate(88.843 96.778) rotate(-39)" fill="#fff"/>
          <path id="Path_55-2" data-name="Path 55" d="M153.781,828.056l-.3-764.839.013-38.26L.064,0,0,883.671l126.173-33.259Z" transform="translate(778.434 783.519) rotate(-141)" fill="#fff"/>
          <path id="Path_87" data-name="Path 87" d="M152.737,134.015,152.928.553,0,0V134.125Z" transform="translate(778.98 630.602) rotate(90)" fill="#fff"/>
          <path id="Path_45-2" data-name="Path 45" d="M153.143,521.349l-2.316-852.387L-5.92-346.853,0,511.168Z" transform="matrix(-0.995, 0.105, -0.105, -0.995, 1386.834, 545.726)" fill="#0d6efd"/>
        </g>
        <g id="Group_56" data-name="Group 56" transform="translate(112.992 2526.918)">
          <path id="Path_49" data-name="Path 49" d="M153.407,0V932L4.051,956.708.345,884.463,0,15.87Z" transform="translate(1127.255 15.839) rotate(90)" fill="#0d6efd"/>
          <path id="Path_50" data-name="Path 50" d="M153.585,0l-.253,1200L.155,1099.513,0,16.079Z" transform="translate(1200.433 707.193) rotate(90)" fill="#fff"/>
          <path id="Path_51" data-name="Path 51" d="M153.587,0V989.221L.158,1014.945,0,16.52Z" transform="translate(1165.348 361.719) rotate(90)" fill="#fff"/>
          <path id="Path_90" data-name="Path 90" d="M153.953,43.045l-.344,688.089L.685,754.558-.633,59.3Z" transform="matrix(0.995, 0.105, -0.105, 0.995, 78.873, 110.315)" fill="#fff"/>
          <path id="Path_46" data-name="Path 46" d="M155.108,0l-3.269,154.346L0,170.3.282,16.273Z" transform="matrix(0.995, 0.105, -0.105, 0.995, 89.824, 0)" fill="#0d6efd"/>
        </g>
        <g id="Group_55" data-name="Group 55" transform="translate(224.488 1475.124)">
          <path id="Path_88" data-name="Path 88" d="M153.421,858.642,153.41,16.124,0,0,.46,842.565Z" transform="matrix(-0.995, 0.105, -0.105, -0.995, 976.364, 854.019)" fill="#fff"/>
          <path id="Path_52" data-name="Path 52" d="M153.5,0V745.323L.07,764.616,0,19.978Z" transform="translate(854.51 358.319) rotate(90)" fill="#fff"/>
          <path id="Path_91" data-name="Path 91" d="M151.849,0l1.561,504.794L0,514.311.3,15.929-.014-328.307l153.441-16Z" transform="matrix(0.995, 0.105, -0.105, 0.995, 53.76, 342.525)" fill="#0d6efd"/>
        </g>
      </g>
    </g>
  </g>
</svg>
