<svg xmlns="http://www.w3.org/2000/svg" width="11971.31" height="4842.221" viewBox="0 0 11971.31 4842.221">
  <g id="al_hella_logo_white" transform="translate(-1544 21854)">
    <rect id="Rectangle_47" data-name="Rectangle 47" width="11971.31" height="4842.22" transform="translate(1544 -21854)" fill="none"/>
    <g id="al_hella_logo_white-2" data-name="al_hella_logo_white" transform="translate(165.563 -23760.779)">
      <g id="Group_59" data-name="Group 59" transform="translate(1578.438 2106.779)">
        <g id="Group_58" data-name="Group 58" transform="translate(425.663 0)">
          <path id="Icon_material-star" data-name="Icon material-star" d="M285.783,434.81l174.76,105.478-46.376-198.8,154.4-133.756-203.321-17.25L285.783,3,206.321,190.485,3,207.735,157.4,341.491l-46.376,198.8Z" transform="translate(-3 776.76)" fill="#fff"/>
          <path id="Icon_material-star-2" data-name="Icon material-star" d="M155,235.109l93.938,56.7L224.013,184.948l82.994-71.9-109.29-9.272L155,3,112.29,103.778,3,113.05l82.994,71.9L61.065,291.806Z" transform="translate(129.431 336.529)" fill="#fff"/>
          <path id="Icon_material-star-3" data-name="Icon material-star" d="M102,154.176,163.186,191.1l-16.236-69.6L201,74.678l-71.183-6.039L102,3,74.183,68.639,3,74.678l54.055,46.828L40.819,191.1Z" transform="translate(181.751 -3)" fill="#3498db"/>
        </g>
        <g id="Group_57" data-name="Group 57" transform="translate(0 3539.732)">
          <path id="Path_45" data-name="Path 45" d="M152.8,0l-.706,847.7L0,863.683.355,16.015Z" transform="matrix(0.995, 0.105, -0.105, 0.995, 90.279, 27.072)" fill="#fff"/>
          <path id="Path_55" data-name="Path 55" d="M153.053,55.377l-.259,868.967L93.262,934.815.036,879.435l.022-9.83L0,0,135.8,41.408Z" transform="translate(88.437 96.336) rotate(-39)" fill="#fff"/>
          <path id="Path_45-2" data-name="Path 45" d="M152.444,518.969,151.8,29.285l-.018-13.374L.008,0,0,508.834Z" transform="matrix(-0.995, 0.105, -0.105, -0.995, 1380.504, 543.235)" fill="#fff"/>
          <path id="Path_55-2" data-name="Path 55" d="M153.079,824.277l-.3-761.348.013-38.085L.064,0,0,879.638l125.6-33.107Z" transform="translate(774.881 779.943) rotate(-141)" fill="#fff"/>
          <path id="Path_87" data-name="Path 87" d="M152.039,133.4,152.23.55,0,0V133.513Z" transform="translate(775.425 627.723) rotate(90)" fill="#fff"/>
          <path id="Path_89" data-name="Path 89" d="M157.635,167.757l-1.27-152.411L0,0,4.627,152.741Z" transform="matrix(-0.995, 0.105, -0.105, -0.995, 1422.561, 886.012)" fill="#3498db"/>
        </g>
        <g id="Group_56" data-name="Group 56" transform="translate(112.477 2515.383)">
          <path id="Path_46" data-name="Path 46" d="M154.4,0l-3.254,153.641L0,169.528.281,16.2Z" transform="matrix(0.995, 0.105, -0.105, 0.995, 89.414, 0)" fill="#3498db"/>
          <path id="Path_49" data-name="Path 49" d="M152.707,0V927.745L4.032,952.341.343,880.427,0,15.8Z" transform="translate(1122.11 15.767) rotate(90)" fill="#3498db"/>
          <path id="Path_50" data-name="Path 50" d="M152.884,0l-.252,1194.526L.155,1094.495,0,16.006Z" transform="translate(1194.954 703.966) rotate(90)" fill="#fff"/>
          <path id="Path_51" data-name="Path 51" d="M152.886,0V984.706L.157,1010.313,0,16.444Z" transform="translate(1160.029 360.068) rotate(90)" fill="#fff"/>
          <path id="Path_90" data-name="Path 90" d="M153.257,0l-.349,499.388-152.226,16L0,16.108l97.019-10.2Z" transform="matrix(0.995, 0.105, -0.105, 0.995, 53.873, 344.246)" fill="#fff"/>
        </g>
        <g id="Group_55" data-name="Group 55" transform="translate(223.462 1468.391)">
          <path id="Path_47" data-name="Path 47" d="M153.494,0l-.011,149.844L0,165.975.733,16.056Z" transform="matrix(0.995, 0.105, -0.105, 0.995, 88.575, 0)" fill="#3498db"/>
          <path id="Path_88" data-name="Path 88" d="M152.721,854.723,152.71,16.051,0,0,.458,838.719Z" transform="matrix(-0.995, 0.105, -0.105, -0.995, 971.908, 850.122)" fill="#fff"/>
          <path id="Path_52" data-name="Path 52" d="M152.8,0V741.921L.07,761.126,0,19.887Z" transform="translate(850.61 356.683) rotate(90)" fill="#fff"/>
          <path id="Path_91" data-name="Path 91" d="M151.156,0l1.553,502.49L0,511.964.3,15.856l37.285-3.919Z" transform="matrix(0.995, 0.105, -0.105, 0.995, 53.515, 340.962)" fill="#fff"/>
        </g>
      </g>
      <path id="Path_13" data-name="Path 13" d="M322.436,811.931H-146.975V29.213h451.4V172.766H29.326V346.885H285.319V489.892H29.326V668.924h293.11Zm300.1,0H450.059V-15.545H622.541ZM1288.9,581.591H924.284q8.732,121.72,153.378,121.719,92.245,0,162.111-43.666V784.093q-77.508,41.483-201.411,41.483-135.365,0-210.144-75.051T753.44,541.2q0-139.186,80.783-220.514T1032.9,239.357q122.266,0,189.13,72.6T1288.9,509ZM1128.97,475.7q0-120.082-97.157-120.082-41.483,0-71.776,34.387t-36.844,85.7Zm705.109,316.034q-58.4,33.841-168.661,33.841-128.815,0-208.506-78.053t-79.69-201.411q0-142.461,85.422-224.608t228.429-82.147q98.795,0,143.007,26.2V411.838q-54.038-40.391-120.628-40.391-74.233,0-117.626,43.393T1552.432,534.65q0,74.232,41.482,116.534t114.078,42.3q64.408,0,126.087-40.391Zm469.858,13.646q-38.208,20.2-115.17,20.2-182.306,0-182.306-189.4V380.18h-90.609V253h90.609V132.374L2178.4,83.25V253h125.541V380.18H2178.4V606.153q0,87.333,69.32,87.333,27.292,0,56.221-15.829Zm480.774-396.817q-31.113-16.921-72.6-16.921-56.22,0-87.878,41.21T2592.579,545.02v266.91H2420.1V253h172.48V356.71h2.183q40.938-113.532,147.374-113.532,27.292,0,42.575,6.55Zm365.6,417.012q-139.732,0-219.7-78.326t-79.964-212.6q0-138.64,82.966-216.967t224.335-78.326q139.186,0,218.331,78.326t79.146,207.142q0,139.186-81.6,219.969T3150.315,825.576Zm4.366-454.129q-61.132,0-94.974,42.029t-33.841,118.99q0,161.019,129.907,161.019,123.9,0,123.9-165.386Q3279.677,371.447,3154.682,371.447ZM4473.848,811.931H4301.912V493.167q0-121.72-89.515-121.72-42.576,0-69.319,36.57t-26.748,91.153v312.76H3943.848V489.892q0-118.445-87.877-118.445-44.213,0-70.685,34.933t-26.472,94.974V811.931H3586.331V253h172.483v87.332H3761q26.745-44.758,75.051-72.868t105.618-28.11q118.445,0,162.111,104.253,63.862-104.253,187.766-104.253,182.307,0,182.306,224.881Zm657.624-230.339H4766.857q8.733,121.72,153.377,121.719,92.246,0,162.111-43.666V784.093q-77.508,41.483-201.41,41.483-135.366,0-210.144-75.051T4596.014,541.2q0-139.186,80.783-220.514t198.681-81.328q122.265,0,189.131,72.6T5131.472,509ZM4971.543,475.7q0-120.082-97.158-120.082-41.482,0-71.776,34.387t-36.844,85.7Zm705.108,316.034q-58.4,33.841-168.66,33.841-128.813,0-208.505-78.053T5219.8,546.112q0-142.461,85.421-224.608t228.431-82.147q98.793,0,143,26.2V411.838q-54.035-40.391-120.626-40.391-74.231,0-117.625,43.393T5395.006,534.65q0,74.232,41.483,116.534t114.078,42.3q64.408,0,126.084-40.391Zm668.54,20.2H6173.256V494.258q0-122.811-89.517-122.811-45.85,0-74.232,34.387t-28.383,87.333V811.931H5808.643V-15.545h172.481V335.968h2.184q63.316-96.611,171.936-96.612,189.951,0,189.948,229.248Zm620.507,0H6802.5V731.694h-2.184q-56.218,93.882-166.475,93.882-81.33,0-128-46.122t-46.669-123.084q0-162.657,192.68-187.765l151.74-20.2q0-91.7-99.341-91.7-99.887,0-189.948,59.5V286.3q36.024-18.558,98.521-32.75t113.8-14.192q239.075,0,239.074,238.527Zm-162.11-227.065V547.2l-101.523,13.1q-84.059,10.917-84.06,75.87,0,29.475,20.47,48.306t55.4,18.831q48.579,0,79.146-33.568T6803.588,584.866Zm857.394,227.065H7489.045V501.354q0-129.907-92.79-129.907-44.758,0-73.688,34.387t-28.929,87.333V811.931H7121.158V253h172.481v88.424h2.185q61.68-102.07,179.578-102.07,185.582,0,185.581,230.339Zm242.792-647.352q-43.667,0-71.5-25.927t-27.835-63.589q0-38.754,27.835-63.316t71.5-24.562q44.214,0,71.775,24.562t27.566,63.316q0,39.3-27.566,64.408T7903.774,164.578Zm85.149,647.352h-172.48V253h172.48Zm587.756-20.2q-58.4,33.841-168.661,33.841-128.817,0-208.507-78.053t-79.688-201.411q0-142.461,85.419-224.608t228.431-82.147q98.793,0,143.007,26.2V411.838q-54.038-40.391-120.628-40.391-74.234,0-117.626,43.393T8295.032,534.65q0,74.232,41.483,116.534t114.076,42.3q64.409,0,126.088-40.391Zm597.036,20.2h-163.2V731.694h-2.185q-56.219,93.882-166.477,93.882-81.328,0-127.994-46.122t-46.672-123.084q0-162.657,192.677-187.765l151.743-20.2q0-91.7-99.342-91.7-99.888,0-189.946,59.5V286.3q36.025-18.558,98.521-32.75t113.806-14.192q239.071,0,239.072,238.527ZM9011.6,584.866V547.2l-101.526,13.1q-84.056,10.917-84.057,75.87,0,29.475,20.469,48.306t55.4,18.831q48.582,0,79.146-33.568T9011.6,584.866Zm490.052,227.065H9329.173V-15.545h172.483Z" transform="translate(3648.089 5720.424)" fill="#9c9c9c"/>
      <g id="Group_85" data-name="Group 85" transform="translate(-5807.888 5523.556)">
        <path id="Path_93" data-name="Path 93" d="M878.7,1558.319H434.55L305.846,1155.8H-337.673l-127.442,402.515H-906.745L-646.359,843l1272.226,4.4Zm629.407,0H1109.381V-354.572H1508.11Zm2741.43,0H3840.717V821.427h-749.51v736.892H2683.645l2.745-1087.673H3840.717V-251.1h408.823Zm1579.543-532.48H4986.2q20.19,281.381,354.567,281.382,213.245,0,374.754-100.944v287.691q-179.174,95.9-465.6,95.9-312.927,0-485.793-173.5t-172.866-483.9q0-321.759,186.747-509.768t459.3-188.008q282.643,0,437.215,167.82t154.57,455.51Zm-369.707-244.79q0-277.6-224.6-277.6-95.9,0-165.927,79.494t-85.172,198.1Zm1049.586,777.27H6110.233V-354.572h398.729Zm778.3,0H6888.533V-354.572h398.728Zm1454.626,0h-377.28V1372.834h-5.048q-129.964,217.03-384.848,217.03-188.006,0-295.892-106.622t-107.884-284.536q0-376.017,445.417-434.06l350.778-46.687q0-211.983-229.646-211.983-230.911,0-439.108,137.536V343.2q83.279-42.9,227.757-75.708t263.084-32.807q552.667,0,552.67,551.407Zm-374.757-524.91V946.345l-234.693,30.283q-194.32,25.236-194.318,175.391,0,68.137,47.318,111.669t128.073,43.532q112.3,0,182.96-77.6T8367.13,1033.409Z" transform="translate(10215.746 -1683.984)" fill="#fff"/>
        <path id="Path_94" data-name="Path 94" d="M2683.645,855.675V-251.1h407.562v1106.2Z" transform="translate(10218.793 -1787.452)" fill="#fff"/>
        <path id="Path_102" data-name="Path 102" d="M4311.9-8487.058l-24.83,171.15,208.324,36.548,209.942-36.548v-169.549l237.53-770.864,96.42,360.683,242.9,776.648,374.331-160.294-220.84-616.354-242.835-682.083H4705.385Z" transform="translate(5257.454 7646.165)" fill="#fff"/>
      </g>
    </g>
  </g>
</svg>
